<svg xmlns="http://www.w3.org/2000/svg" viewBox="0 0 32 32" width="32" height="32">
  <defs>
    <style>
      .bg { fill: #0f172a; }
      .primary { fill: #e2e8f0; }
      .accent { fill: #3b82f6; }
      .highlight { fill: #10b981; }
    </style>
  </defs>
  
  <!-- Background with subtle gradient feel -->
  <circle cx="16" cy="16" r="16" class="bg"/>
  
  <!-- Data pipeline representation -->
  <!-- Source data (left) -->
  <rect x="4" y="12" width="3" height="8" rx="1" class="primary"/>
  
  <!-- Transformation layer (center) -->
  <rect x="11" y="8" width="2.5" height="4" rx="0.5" class="accent"/>
  <rect x="11" y="14" width="2.5" height="4" rx="0.5" class="accent"/>
  <rect x="11" y="20" width="2.5" height="4" rx="0.5" class="accent"/>
  
  <!-- Analytics/DWH (center-right) -->
  <rect x="18" y="10" width="3" height="12" rx="1" class="highlight"/>
  
  <!-- Reporting output (right) -->
  <rect x="25" y="13" width="3" height="6" rx="1" class="primary"/>
  
  <!-- Data flow connections -->
  <line x1="7" y1="16" x2="11" y2="16" stroke="#64748b" stroke-width="1"/>
  <line x1="7" y1="16" x2="11" y2="10" stroke="#64748b" stroke-width="0.8"/>
  <line x1="7" y1="16" x2="11" y2="22" stroke="#64748b" stroke-width="0.8"/>
  
  <line x1="13.5" y1="10" x2="18" y2="14" stroke="#64748b" stroke-width="0.8"/>
  <line x1="13.5" y1="16" x2="18" y2="16" stroke="#64748b" stroke-width="1"/>
  <line x1="13.5" y1="22" x2="18" y2="18" stroke="#64748b" stroke-width="0.8"/>
  
  <line x1="21" y1="16" x2="25" y2="16" stroke="#64748b" stroke-width="1"/>
</svg>